<svg width="32" height="32" viewBox="0 0 32 32" fill="none" xmlns="http://www.w3.org/2000/svg">
<circle cx="16" cy="16" r="16" fill="#F8F8F8"/>
<path d="M14.2906 21.05C14.2906 22.1269 13.4175 23 12.3406 23C11.2637 23 10.3906 22.1269 10.3906 21.05V10.95C10.3906 9.87311 11.2637 9 12.3406 9C13.4175 9 14.2906 9.87311 14.2906 10.95V21.05Z" fill="#14131C"/>
<path d="M21.609 21.05C21.609 22.1269 20.7359 23 19.659 23C18.5821 23 17.709 22.1269 17.709 21.05V10.95C17.7093 9.87311 18.5824 9 19.659 9C20.7359 9 21.609 9.87311 21.609 10.95V21.05Z" fill="#14131C"/>
</svg>
