<svg width="48" height="48" viewBox="0 0 48 48" fill="none" xmlns="http://www.w3.org/2000/svg">
<circle cx="24" cy="24" r="24" fill="#F8F8F8"/>
<g clip-path="url(#clip0)">
<path d="M21.436 31.575C21.436 33.1903 20.1263 34.5 18.5109 34.5C16.8956 34.5 15.5859 33.1903 15.5859 31.575V16.425C15.5859 14.8097 16.8956 13.5 18.5109 13.5C20.1263 13.5 21.436 14.8097 21.436 16.425V31.575Z" fill="#14131C"/>
<path d="M32.4135 31.575C32.4135 33.1903 31.1038 34.5 29.4885 34.5C27.8731 34.5 26.5635 33.1903 26.5635 31.575V16.425C26.5639 14.8097 27.8736 13.5 29.4885 13.5C31.1038 13.5 32.4135 14.8097 32.4135 16.425V31.575Z" fill="#14131C"/>
</g>
<defs>
<clipPath id="clip0">
<rect width="21" height="21" fill="white" transform="translate(13.5 13.5)"/>
</clipPath>
</defs>
</svg>
