<svg width="32" height="32" viewBox="0 0 32 32" fill="none" xmlns="http://www.w3.org/2000/svg">
<circle cx="16" cy="16" r="16" transform="rotate(180 16 16)" fill="#F8F8F8"/>
<path fill-rule="evenodd" clip-rule="evenodd" d="M21.8997 12.0717L17.5 15.374L17.5 12.8715C17.5 12.0473 16.5589 11.577 15.8997 12.0717L11.0656 15.7C11.0428 15.7171 11.0209 15.735 11 15.7536L11 11.9998L9 11.9998L9 20.9998L11 20.9998L11 17.246C11.0209 17.2646 11.0428 17.2824 11.0656 17.2996L15.8997 20.9279C16.5589 21.4226 17.5 20.9523 17.5 20.1281L17.5 17.6256L21.8997 20.9279C22.5589 21.4226 23.5 20.9523 23.5 20.1281L23.5 12.8715C23.5 12.0473 22.5589 11.577 21.8997 12.0717Z" fill="#14131C"/>
</svg>
