<svg width="16" height="17" viewBox="0 0 16 17" fill="none" xmlns="http://www.w3.org/2000/svg">
<path d="M10.3406 3.7145C11.3248 4.10623 12.1676 4.77848 12.7608 5.64495C13.3539 6.51142 13.6704 7.53257 13.6695 8.57731C13.6704 9.62199 13.3539 10.6431 12.7607 11.5095C12.1676 12.3759 11.3248 13.0481 10.3406 13.4397V14.5336C11.6145 14.1208 12.7233 13.3227 13.5089 12.2531C14.2945 11.1835 14.7168 9.89704 14.7155 8.57731C14.7155 5.79895 12.8824 3.44054 10.3406 2.61749V3.7145V3.7145ZM10.3406 6.29717C10.6756 6.57863 10.9443 6.92834 11.1284 7.32211C11.3124 7.71587 11.4073 8.14428 11.4065 8.5777C11.4074 9.01107 11.3125 9.43944 11.1285 9.83315C10.9444 10.2269 10.6756 10.5765 10.3406 10.8578V11.9709C11.5298 11.2934 12.3292 10.0273 12.3292 8.5777C12.3295 7.89013 12.1459 7.2146 11.7968 6.61898C11.4477 6.02336 10.9455 5.52863 10.3406 5.1845V6.29717V6.29717ZM1.19315 11.7118H4.37488L7.95433 16.0228C8.35205 16.5864 9.2827 16.5437 9.5452 15.9046V1.28212C9.22265 0.643402 8.37631 0.592132 7.95433 1.13262L4.37488 5.45846H1.19315C0.174598 5.45846 0 5.63888 0 6.61849V10.5369C0 11.4926 0.198858 11.7118 1.19315 11.7118Z" fill="#14131C"/>
<line y1="-0.5" x2="21.3658" y2="-0.5" transform="matrix(0.694287 -0.719698 0.694288 0.719698 1.16602 16.762)" stroke="#14131C"/>
</svg>
