<svg width="16" height="16" viewBox="0 0 16 16" fill="none" xmlns="http://www.w3.org/2000/svg">
<path d="M11.2432 3.01766C12.3134 3.41802 13.2297 4.1051 13.8746 4.99068C14.5196 5.87626 14.8636 6.91993 14.8627 7.98771C14.8636 9.05543 14.5195 10.099 13.8746 10.9845C13.2297 11.8701 12.3133 12.5571 11.2432 12.9574V14.0754C12.6283 13.6535 13.8339 12.8377 14.688 11.7445C15.5422 10.6513 16.0014 9.33655 16 7.98771C16 5.14808 14.0069 2.73765 11.2432 1.89644V3.01766V3.01766ZM11.2432 5.65728C11.6074 5.94495 11.8997 6.30237 12.0998 6.70482C12.2999 7.10727 12.403 7.54513 12.4022 7.98811C12.4031 8.43103 12.2999 8.86885 12.0998 9.27124C11.8997 9.67363 11.6074 10.031 11.2432 10.3185V11.4561C12.5362 10.7637 13.4054 9.46972 13.4054 7.98811C13.4057 7.28537 13.2061 6.59494 12.8265 5.98619C12.447 5.37743 11.9009 4.87179 11.2432 4.52007V5.65728V5.65728ZM1.2973 11.1913H4.75676L8.64865 15.5974C9.08108 16.1734 10.093 16.1298 10.3784 15.4766V0.531631C10.0277 -0.121176 9.10746 -0.173577 8.64865 0.378829L4.75676 4.80007H1.2973C0.189838 4.80007 0 4.98448 0 5.98569V9.99053C0 10.9673 0.216216 11.1913 1.2973 11.1913Z" fill="#14131C"/>
</svg>
