<svg width="251" height="266" viewBox="0 0 251 266" fill="none" xmlns="http://www.w3.org/2000/svg">
<path d="M127.121 0.87868C125.95 -0.292893 124.05 -0.292893 122.879 0.87868L103.787 19.9706C102.615 21.1421 102.615 23.0416 103.787 24.2132C104.958 25.3848 106.858 25.3848 108.029 24.2132L125 7.24264L141.971 24.2132C143.142 25.3848 145.042 25.3848 146.213 24.2132C147.385 23.0416 147.385 21.1421 146.213 19.9706L127.121 0.87868ZM128 68L128 3L122 3L122 68L128 68Z" fill="#F8F8F8"/>
<path d="M122.879 265.121C124.05 266.293 125.95 266.293 127.121 265.121L146.213 246.029C147.385 244.858 147.385 242.958 146.213 241.787C145.042 240.615 143.142 240.615 141.971 241.787L125 258.757L108.029 241.787C106.858 240.615 104.958 240.615 103.787 241.787C102.615 242.958 102.615 244.858 103.787 246.029L122.879 265.121ZM122 198L122 263L128 263L128 198L122 198Z" fill="#F8F8F8"/>
<path d="M250.121 129.121C251.293 127.95 251.293 126.05 250.121 124.879L231.029 105.787C229.858 104.615 227.958 104.615 226.787 105.787C225.615 106.958 225.615 108.858 226.787 110.029L243.757 127L226.787 143.971C225.615 145.142 225.615 147.042 226.787 148.213C227.958 149.385 229.858 149.385 231.029 148.213L250.121 129.121ZM183 130L248 130L248 124L183 124L183 130Z" fill="#F8F8F8"/>
<path d="M0.87868 124.879C-0.292893 126.05 -0.292893 127.95 0.878679 129.121L19.9706 148.213C21.1421 149.385 23.0416 149.385 24.2132 148.213C25.3848 147.042 25.3848 145.142 24.2132 143.971L7.24264 127L24.2132 110.029C25.3848 108.858 25.3848 106.958 24.2132 105.787C23.0416 104.615 21.1421 104.615 19.9706 105.787L0.87868 124.879ZM68 124L3 124L3 130L68 130L68 124Z" fill="#F8F8F8"/>
<rect x="104" y="93" width="44" height="72" rx="22" stroke="#F8F8F8" stroke-width="4"/>
<rect x="124" y="105" width="4" height="14" rx="2" fill="#F8F8F8"/>
</svg>
