<svg width="496" height="496" viewBox="0 0 496 496" fill="none" xmlns="http://www.w3.org/2000/svg">
<circle cx="248" cy="248" r="229.5" stroke="#14131C" stroke-width="37"/>
<mask id="path-2-inside-1" fill="white">
<path fill-rule="evenodd" clip-rule="evenodd" d="M155.703 320.782C150.173 326.312 150.173 335.278 155.703 340.808C161.234 346.338 170.199 346.338 175.729 340.808L248.256 268.282L320.782 340.808C326.312 346.338 335.278 346.338 340.808 340.808C346.338 335.278 346.338 326.312 340.808 320.782L268.282 248.256L340.808 175.729C346.338 170.199 346.338 161.233 340.808 155.703C335.278 150.173 326.312 150.173 320.782 155.703L248.256 228.23L175.729 155.703C170.199 150.173 161.233 150.173 155.703 155.703C150.173 161.233 150.173 170.199 155.703 175.729L228.23 248.256L155.703 320.782Z"/>
</mask>
<path fill-rule="evenodd" clip-rule="evenodd" d="M155.703 320.782C150.173 326.312 150.173 335.278 155.703 340.808C161.234 346.338 170.199 346.338 175.729 340.808L248.256 268.282L320.782 340.808C326.312 346.338 335.278 346.338 340.808 340.808C346.338 335.278 346.338 326.312 340.808 320.782L268.282 248.256L340.808 175.729C346.338 170.199 346.338 161.233 340.808 155.703C335.278 150.173 326.312 150.173 320.782 155.703L248.256 228.23L175.729 155.703C170.199 150.173 161.233 150.173 155.703 155.703C150.173 161.233 150.173 170.199 155.703 175.729L228.23 248.256L155.703 320.782Z" fill="#14131C"/>
<path d="M155.703 340.808L154.996 341.515L154.996 341.515L155.703 340.808ZM155.703 320.782L156.411 321.489L156.411 321.489L155.703 320.782ZM175.729 340.808L176.437 341.515L176.437 341.515L175.729 340.808ZM248.256 268.282L248.963 267.575L248.256 266.868L247.549 267.575L248.256 268.282ZM340.808 320.782L341.515 320.075L341.515 320.075L340.808 320.782ZM268.282 248.256L267.575 247.549L266.867 248.256L267.575 248.963L268.282 248.256ZM340.808 175.729L341.515 176.436L341.515 176.436L340.808 175.729ZM340.808 155.703L341.515 154.996L341.515 154.996L340.808 155.703ZM320.782 155.703L321.489 156.41L321.489 156.41L320.782 155.703ZM248.256 228.23L247.549 228.937L248.256 229.644L248.963 228.937L248.256 228.23ZM175.729 155.703L175.022 156.41L175.022 156.41L175.729 155.703ZM155.703 155.703L154.996 154.996L154.996 154.996L155.703 155.703ZM155.703 175.729L156.41 175.022L156.41 175.022L155.703 175.729ZM228.23 248.256L228.937 248.963L229.644 248.256L228.937 247.549L228.23 248.256ZM156.411 340.101C151.271 334.961 151.271 326.629 156.411 321.489L154.996 320.075C149.076 325.995 149.076 335.595 154.996 341.515L156.411 340.101ZM175.022 340.101C169.883 345.24 161.55 345.24 156.411 340.101L154.996 341.515C160.917 347.436 170.516 347.436 176.437 341.515L175.022 340.101ZM247.549 267.575L175.022 340.101L176.437 341.515L248.963 268.989L247.549 267.575ZM321.489 340.101L248.963 267.575L247.549 268.989L320.075 341.515L321.489 340.101ZM340.101 340.101C334.961 345.24 326.629 345.24 321.489 340.101L320.075 341.515C325.995 347.436 335.595 347.436 341.515 341.515L340.101 340.101ZM340.101 321.489C345.24 326.629 345.24 334.962 340.101 340.101L341.515 341.515C347.436 335.595 347.436 325.996 341.515 320.075L340.101 321.489ZM267.575 248.963L340.101 321.489L341.515 320.075L268.989 247.549L267.575 248.963ZM340.101 175.022L267.575 247.549L268.989 248.963L341.515 176.436L340.101 175.022ZM340.101 156.41C345.241 161.55 345.241 169.883 340.101 175.022L341.515 176.436C347.436 170.516 347.436 160.917 341.515 154.996L340.101 156.41ZM321.489 156.41C326.629 151.271 334.962 151.271 340.101 156.41L341.515 154.996C335.595 149.076 325.996 149.076 320.075 154.996L321.489 156.41ZM248.963 228.937L321.489 156.41L320.075 154.996L247.549 227.523L248.963 228.937ZM175.022 156.41L247.549 228.937L248.963 227.523L176.436 154.996L175.022 156.41ZM156.41 156.41C161.55 151.271 169.883 151.271 175.022 156.41L176.436 154.996C170.516 149.076 160.917 149.076 154.996 154.996L156.41 156.41ZM156.41 175.022C151.271 169.883 151.271 161.55 156.41 156.41L154.996 154.996C149.076 160.917 149.076 170.516 154.996 176.436L156.41 175.022ZM228.937 247.549L156.41 175.022L154.996 176.436L227.523 248.963L228.937 247.549ZM156.411 321.489L228.937 248.963L227.523 247.549L154.996 320.075L156.411 321.489Z" fill="#14131C" mask="url(#path-2-inside-1)"/>
</svg>
