<svg width="74" height="74" viewBox="0 0 74 74" fill="none" xmlns="http://www.w3.org/2000/svg">
<g opacity="0.5">
<rect x="2.5" y="2.5" width="69" height="69" rx="13.5" stroke="#F8F8F8" stroke-width="5"/>
<line x1="23.2324" y1="11.0466" x2="52.4882" y2="11.0466" stroke="#F8F8F8" stroke-width="2"/>
<path d="M26.654 24.2938H35.366C37.406 24.2938 39.242 24.6058 40.874 25.2298C42.506 25.8538 43.898 26.7418 45.05 27.8938C46.202 29.0218 47.078 30.3778 47.678 31.9618C48.302 33.5458 48.614 35.2858 48.614 37.1818C48.614 39.1018 48.302 40.8538 47.678 42.4378C47.078 44.0218 46.202 45.3778 45.05 46.5058C43.898 47.6338 42.506 48.5098 40.874 49.1338C39.242 49.7578 37.406 50.0698 35.366 50.0698H26.654V24.2938ZM35.15 45.4618C36.566 45.4618 37.814 45.2698 38.894 44.8858C39.974 44.4778 40.874 43.9138 41.594 43.1938C42.314 42.4738 42.854 41.6098 43.214 40.6018C43.574 39.5698 43.754 38.4298 43.754 37.1818C43.754 35.9338 43.574 34.8058 43.214 33.7978C42.854 32.7658 42.314 31.8898 41.594 31.1698C40.874 30.4498 39.974 29.8978 38.894 29.5138C37.814 29.1058 36.566 28.9018 35.15 28.9018H31.514V45.4618H35.15Z" fill="#F8F8F8"/>
</g>
</svg>
