<svg width="104" height="104" viewBox="0 0 104 104" fill="none" xmlns="http://www.w3.org/2000/svg">
<circle cx="52" cy="52" r="52" fill="#F8F8F8"/>
<path d="M52.0003 23.8687C46.4365 23.8687 40.9976 25.5185 36.3715 28.6096C31.7453 31.7007 28.1397 36.0942 26.0105 41.2345C23.8813 46.3748 23.3242 52.031 24.4097 57.4879C25.4951 62.9448 28.1744 67.9573 32.1086 71.8915C36.0428 75.8257 41.0553 78.505 46.5122 79.5904C51.9691 80.6759 57.6253 80.1188 62.7656 77.9896C67.9059 75.8604 72.2994 72.2548 75.3905 67.6286C78.4816 63.0025 80.1314 57.5636 80.1314 51.9998C80.1314 44.539 77.1676 37.3837 71.892 32.1081C66.6164 26.8325 59.4611 23.8687 52.0003 23.8687ZM52.0003 25.6268C56.8109 25.6288 61.5293 26.9466 65.6449 29.4374C69.7604 31.9283 73.1162 35.4974 75.3491 39.7584C74.6063 39.7188 73.8591 39.6924 73.0987 39.6924C65.3274 39.6924 58.4485 41.7407 54.198 44.8879C57.0366 45.8246 59.6742 47.2857 61.9737 49.1955C62.0728 49.2671 62.1558 49.3586 62.2176 49.4641C62.2793 49.5696 62.3184 49.6869 62.3322 49.8084C62.3461 49.9299 62.3345 50.0529 62.2981 50.1696C62.2617 50.2864 62.2014 50.3942 62.121 50.4863C62.0405 50.5784 61.9418 50.6527 61.831 50.7045C61.7202 50.7562 61.5999 50.7843 61.4776 50.7869C61.3554 50.7895 61.234 50.7666 61.1211 50.7197C61.0082 50.6727 60.9063 50.6027 60.8221 50.5141C58.4001 48.4043 54.998 46.7736 51.0465 45.7494H51.0069C50.5967 45.6439 50.1806 45.5443 49.7586 45.4505L49.6531 45.4066C49.2487 45.3187 48.8399 45.2381 48.4268 45.1648L48.2861 45.1384C47.0114 44.9099 45.6928 44.7472 44.3302 44.6417C43.9609 44.6154 43.5917 44.5934 43.2181 44.5714L42.6819 44.545C42.1368 44.5275 41.5786 44.5275 41.0116 44.5275C35.2974 44.5275 30.0756 45.6351 26.0229 47.4724C27.0961 41.3593 30.2878 35.8193 35.0381 31.8246C39.7883 27.8299 45.7937 25.6356 52.0003 25.6268ZM39.1083 74.9926C44.4796 69.5818 36.6688 62.2149 36.6688 62.2149C44.8269 65.7313 44.8269 72.1224 44.8269 72.1224C47.7411 67.4587 41.9126 54.6371 41.9126 54.6371C47.7411 61.6303 48.3257 72.7026 48.3257 72.7026C52.4047 68.039 48.3257 59.2963 48.3257 59.2963C55.8815 63.9467 52.6464 74.5663 52.6289 74.6234C55.0332 71.2345 57.2046 65.2522 55.3233 55.2173C55.3233 55.2173 59.4023 59.8809 56.4881 73.2828C56.4881 73.2828 65.2307 65.7049 64.0659 56.9623C64.0659 56.9623 65.4681 64.4566 63.2396 70.6279C64.5846 68.0829 67.4548 64.1401 72.224 64.5357C72.224 64.5357 64.2417 67.9598 65.1912 74.808C61.2344 77.1057 56.7463 78.3306 52.1709 78.3614C47.5955 78.3922 43.0913 77.228 39.1039 74.9838L39.1083 74.9926Z" fill="#14131C"/>
<path d="M42.6689 38.7126C42.9112 39.1502 43.2459 39.5299 43.6497 39.8252C44.0535 40.1204 44.5167 40.3242 45.0073 40.4224L44.7699 42.9323C45.8072 43.0202 46.8329 43.1447 47.8467 43.3059L47.5786 40.5719C47.9574 40.6629 48.3518 40.6675 48.7326 40.5855C49.1134 40.5034 49.4709 40.3368 49.7786 40.0979C50.0863 39.859 50.3363 39.554 50.5102 39.2054C50.684 38.8568 50.7772 38.4735 50.7829 38.084C51.3165 37.8084 51.7696 37.3994 52.098 36.8966C52.4265 36.3939 52.6191 35.8146 52.6572 35.2153C52.6953 34.616 52.5775 34.017 52.3152 33.4768C52.053 32.9365 51.6553 32.4734 51.1609 32.1325C51.0302 31.3453 50.6781 30.6115 50.1456 30.0171C49.6132 29.4226 48.9225 28.9921 48.1543 28.7759C47.3861 28.5596 46.5722 28.5666 45.8079 28.7959C45.0435 29.0253 44.3603 29.4676 43.8381 30.071C43.4837 30.0899 43.1369 30.1808 42.8189 30.3382C42.5008 30.4955 42.2182 30.7161 41.9882 30.9864C41.7583 31.2566 41.5858 31.5709 41.4814 31.9101C41.377 32.2492 41.3428 32.6061 41.381 32.9589C40.9636 33.3736 40.6582 33.8874 40.4935 34.4522C40.3288 35.0171 40.3101 35.6145 40.4393 36.1885C40.5684 36.7626 40.8411 37.2944 41.2318 37.7343C41.6225 38.1743 42.1185 38.5078 42.6733 38.7038L42.6689 38.7126Z" fill="#14131C"/>
<path d="M63.2346 70.6372C62.8764 71.3037 62.5679 71.9956 62.3115 72.7075C62.6714 72.0419 62.98 71.3498 63.2346 70.6372V70.6372Z" fill="#14131C"/>
</svg>
