<svg width="104" height="104" viewBox="0 0 104 104" fill="none" xmlns="http://www.w3.org/2000/svg">
<circle cx="52" cy="52" r="52" fill="#F8F8F8"/>
<g clip-path="url(#clip0)">
<path d="M33.268 64.5324C34.4064 65.4997 35.6719 66.2884 37.0249 66.8741C36.18 69.1806 35.822 74.0348 36.4569 75.8387C36.6801 75.9179 36.9136 75.9603 37.1491 75.9644V75.9644C37.3514 75.9989 37.5577 75.9989 37.7601 75.9644C38.6385 74.4217 39.135 70.0851 38.8485 67.5424C39.915 67.8714 41.0033 68.1166 42.1042 68.2761C43.0109 68.4136 43.9241 68.4991 44.8396 68.5324C45.317 68.5324 45.7944 68.5324 46.2717 68.5324L46.9974 68.4972L47.3649 68.467L47.8423 68.4017C48.7975 68.2064 49.672 67.7052 50.3462 66.9668C51.0204 66.2283 51.4614 65.2886 51.6088 64.2762C51.6613 63.9324 51.6773 63.5835 51.6566 63.236C51.6488 63.0675 51.6312 62.8997 51.604 62.7335L51.5563 62.4772C51.5561 62.3239 51.5688 62.1709 51.5945 62.0199C51.6259 61.8118 51.6673 61.6055 51.7186 61.4019C51.7717 61.1907 51.8354 60.9827 51.9096 60.7788L52.0337 60.417L52.0623 60.3265L52.1244 60.1104C52.1604 59.9606 52.1828 59.8075 52.1912 59.6531C52.206 59.3432 52.1626 59.0332 52.0635 58.7409C51.9643 58.4486 51.8115 58.1797 51.6136 57.9497C51.4094 57.7125 51.1607 57.5226 50.8832 57.3919C50.815 57.3588 50.7448 57.3303 50.6732 57.3065L50.5299 57.2612L50.3772 57.211C49.9792 57.083 49.5939 56.9147 49.2267 56.7085C48.5607 56.3764 48.0039 55.8428 47.6275 55.1759C47.5435 55.0152 47.4732 54.8471 47.4174 54.6734V54.593H47.4461C47.7086 54.6281 47.976 54.6432 48.2385 54.6633C48.7636 54.6935 49.2888 54.7035 49.8091 54.6884C50.3294 54.6734 50.845 54.6332 51.3606 54.5729C51.8886 54.5116 52.4129 54.4193 52.9312 54.2965C53.1967 54.2285 53.4339 54.0709 53.6063 53.8477C53.7787 53.6244 53.8769 53.3479 53.8859 53.0603L53.9957 49.5026C54.7285 49.2822 55.4242 48.9432 56.058 48.4976C56.2914 48.3302 56.5131 48.1455 56.7215 47.9448C56.8466 47.8269 56.9631 47.6993 57.07 47.5629C57.1837 47.419 57.2844 47.2642 57.3708 47.1006C57.6251 46.6267 57.7624 46.093 57.7699 45.5487C57.7774 45.0043 57.6549 44.4667 57.4137 43.9851C57.2481 43.6745 57.0316 43.3972 56.774 43.1661C56.5766 42.9818 56.3659 42.8138 56.1439 42.6635C55.9482 42.5379 55.8241 42.4324 55.6665 42.3218C55.0868 41.9076 54.5632 41.4123 54.1103 40.8495C53.297 39.8386 52.7374 38.6292 52.4824 37.332C52.367 36.7655 52.3078 36.1878 52.3058 35.6084C52.3058 34.9954 52.2724 34.4125 52.2151 33.8748C52.1912 33.6286 51.8666 33.4678 51.5086 33.513C51.1505 33.5582 50.9453 33.7291 50.9405 33.9301C50.9405 34.4326 50.888 34.9652 50.8307 35.5431C50.7569 36.231 50.7569 36.9255 50.8307 37.6134C51.0137 39.2535 51.6049 40.8136 52.5445 42.1359C53.0674 42.885 53.6877 43.5532 54.3872 44.1208C54.559 44.2615 54.7595 44.4273 54.9123 44.5379C55.0406 44.6318 55.1619 44.7359 55.2751 44.8494C55.3375 44.9084 55.3879 44.9803 55.4231 45.0605C55.4586 45.1502 55.4811 45.2451 55.4899 45.3419C55.5089 45.5395 55.4634 45.7379 55.361 45.9047C55.3378 45.9445 55.3106 45.9816 55.2798 46.0152C55.2414 46.0587 55.1999 46.099 55.1557 46.1358C55.0245 46.2514 54.8857 46.3572 54.7404 46.4524C54.0781 46.857 53.3465 47.1199 52.5874 47.2263C52.3201 47.2725 52.0757 47.4132 51.8944 47.625C51.7131 47.8369 51.6056 48.1074 51.5897 48.3921V48.4272L51.4083 51.8443L51.0455 51.8995C50.6063 51.9448 50.1576 51.9699 49.7136 51.9799C49.2697 51.99 48.8162 51.9799 48.3722 51.9397C48.1478 51.9397 47.9235 51.9046 47.7039 51.8694L47.322 51.8242C46.9846 51.7883 46.6438 51.8286 46.3224 51.9423C46.0009 52.0559 45.7062 52.2404 45.4578 52.4833C45.2093 52.7263 45.0129 53.0222 44.8817 53.3513C44.7504 53.6804 44.6872 54.0351 44.6964 54.3919C44.6981 54.5319 44.7108 54.6714 44.7346 54.809C44.7346 54.9296 44.7728 54.9849 44.7919 55.0754C44.811 55.1658 44.8778 55.402 44.9255 55.5779C45.0306 55.8957 45.1615 56.2034 45.317 56.4974C45.9426 57.6438 46.8805 58.5663 48.0094 59.1456C48.4833 59.4064 48.9786 59.6217 49.4893 59.7888L49.4606 59.8742C49.2651 60.4405 49.1259 61.0265 49.0453 61.623C48.993 61.9786 48.9785 62.3393 49.0023 62.6983V62.7837C48.9737 62.638 49.0405 63.0099 49.0358 62.9697V63.03L49.0596 63.1506C49.0749 63.2301 49.0845 63.3107 49.0883 63.3918C49.1078 63.5586 49.1078 63.7274 49.0883 63.8943C49.0318 64.3758 48.8355 64.8273 48.5262 65.187C48.217 65.5467 47.8097 65.7972 47.3602 65.9043L47.1358 65.9445L46.8159 65.9797L46.1667 66.0299C45.7371 66.0601 45.3027 66.0701 44.8778 66.0751C44.0394 66.0795 43.2013 66.0392 42.3668 65.9545C40.8262 65.8162 39.306 65.4908 37.8365 64.9847C35.1202 64.0149 33.0054 62.4169 31.9647 60.8843C31.8502 60.7134 31.4874 60.7235 31.1723 60.9144C30.8572 61.1054 30.7379 61.3868 30.8429 61.5978C31.4573 62.7365 32.2818 63.7342 33.268 64.5324ZM49.8568 59.8893H49.8855H49.8568Z" fill="#14131C"/>
<path d="M59.3859 54.8394C59.1619 54.9104 58.9483 55.0135 58.751 55.1459C58.5669 55.2408 58.3925 55.3553 58.2306 55.4876C58.1734 55.8795 58.1877 56.3469 58.159 56.8443C58.1233 57.8928 57.8742 58.9209 57.4286 59.8593C57.2281 60.3116 56.999 60.7186 56.8701 61.0955C56.963 61.3178 57.0765 61.5299 57.2091 61.7287C57.303 61.9133 57.422 62.0826 57.5623 62.2312C58.1815 62.1436 58.7565 61.8454 59.1997 61.3819C59.8237 60.7615 60.2692 59.9688 60.4854 59.0944C60.7015 58.22 60.6794 57.2992 60.4218 56.4373C60.2526 55.7993 59.8886 55.2378 59.3859 54.8394V54.8394Z" fill="#14131C"/>
<path d="M62.6836 63.5175C62.1394 64.5225 61.557 65.3466 61.1895 65.9697C61.2667 66.1982 61.3887 66.407 61.5475 66.5828C61.7528 66.8441 61.9389 67.03 61.9819 67.0099C62.9722 66.5227 63.844 65.8044 64.5311 64.9094C65.4934 63.6949 66.1877 62.2708 66.5641 60.7397C66.9406 59.2087 66.9897 57.6088 66.7079 56.0553C66.52 54.9197 66.089 53.844 65.4477 52.9097C65.2097 52.9147 64.9768 52.9821 64.7698 53.1056C64.5715 53.1708 64.3891 53.2805 64.2351 53.4272C64.2685 54.1559 64.4117 55.1659 64.4213 56.3267C64.4404 57.5809 64.3056 58.8324 64.0203 60.0502C63.7181 61.2616 63.2689 62.427 62.6836 63.5175V63.5175Z" fill="#14131C"/>
<path d="M70.2556 51.4277C70.4933 52.8962 70.6527 54.3775 70.733 55.8648C70.7933 57.8306 70.5941 59.7957 70.141 61.7038C69.6602 63.6064 68.9308 65.4294 67.9737 67.1208C67.2271 68.3867 66.4143 69.608 65.5391 70.779C65.4962 70.8393 65.6585 71.1308 65.8972 71.4172C66.1358 71.7036 66.3125 71.8393 66.3745 71.7991C67.7268 70.9381 68.9097 69.8123 69.8594 68.4826C71.1791 66.6735 72.1381 64.6024 72.6787 62.3936C73.2192 60.1848 73.3304 57.8837 73.0053 55.6286C72.7873 53.98 72.2721 52.3903 71.4872 50.9453C71.4491 50.8749 71.134 50.9453 70.7903 51.0759C70.4466 51.2066 70.2461 51.3573 70.2556 51.4277Z" fill="#14131C"/>
</g>
<defs>
<clipPath id="clip0">
<rect width="47.7377" height="47.7377" fill="white" transform="translate(28.1309 28.1313)"/>
</clipPath>
</defs>
</svg>
