<svg width="54" height="54" viewBox="0 0 54 54" fill="none" xmlns="http://www.w3.org/2000/svg">
<circle cx="27" cy="27" r="27" fill="#F8F8F8"/>
<g clip-path="url(#clip0)">
<path d="M17.2736 33.5077C17.8647 34.0099 18.5218 34.4194 19.2244 34.7235C18.7856 35.9211 18.5997 38.4416 18.9294 39.3783C19.0453 39.4194 19.1665 39.4414 19.2888 39.4435V39.4435C19.3939 39.4614 19.501 39.4614 19.6061 39.4435C20.0622 38.6425 20.3199 36.3908 20.1712 35.0706C20.725 35.2414 21.29 35.3687 21.8617 35.4515C22.3325 35.5229 22.8066 35.5673 23.282 35.5846C23.5298 35.5846 23.7777 35.5846 24.0256 35.5846L24.4023 35.5663L24.5932 35.5506L24.8411 35.5167C25.337 35.4153 25.7911 35.1551 26.1412 34.7716C26.4912 34.3882 26.7202 33.9003 26.7968 33.3746C26.824 33.1961 26.8323 33.015 26.8215 32.8345C26.8175 32.747 26.8084 32.6599 26.7943 32.5736L26.7695 32.4405C26.7694 32.3609 26.776 32.2815 26.7893 32.2031C26.8056 32.095 26.8271 31.9879 26.8538 31.8822C26.8813 31.7726 26.9144 31.6646 26.9529 31.5586L27.0174 31.3708L27.0322 31.3238L27.0645 31.2116C27.0831 31.1338 27.0948 31.0543 27.0992 30.9742C27.1068 30.8132 27.0843 30.6523 27.0328 30.5005C26.9814 30.3488 26.902 30.2091 26.7992 30.0897C26.6932 29.9666 26.5641 29.8679 26.42 29.8001C26.3846 29.7829 26.3481 29.7681 26.3109 29.7557L26.2366 29.7322L26.1573 29.7061C25.9506 29.6397 25.7505 29.5523 25.5599 29.4452C25.2141 29.2728 24.925 28.9957 24.7295 28.6494C24.6859 28.566 24.6494 28.4787 24.6205 28.3885V28.3468H24.6353C24.7717 28.365 24.9105 28.3729 25.0468 28.3833C25.3195 28.399 25.5921 28.4042 25.8623 28.3964C26.1325 28.3885 26.4002 28.3677 26.6679 28.3363C26.942 28.3045 27.2143 28.2566 27.4833 28.1928C27.6213 28.1576 27.7444 28.0757 27.8339 27.9598C27.9234 27.8439 27.9744 27.7003 27.9791 27.551L28.0361 25.7037C28.4166 25.5893 28.7778 25.4132 29.1069 25.1819C29.2281 25.095 29.3432 24.9991 29.4514 24.8949C29.5164 24.8337 29.5769 24.7674 29.6324 24.6966C29.6914 24.6218 29.7437 24.5415 29.7885 24.4565C29.9206 24.2104 29.9919 23.9333 29.9958 23.6507C29.9997 23.3681 29.9361 23.0889 29.8108 22.8389C29.7249 22.6776 29.6124 22.5336 29.4787 22.4136C29.3762 22.3179 29.2668 22.2307 29.1515 22.1527C29.0499 22.0874 28.9854 22.0326 28.9036 21.9752C28.6026 21.7602 28.3308 21.503 28.0956 21.2108C27.6733 20.6858 27.3827 20.0579 27.2504 19.3844C27.1904 19.0902 27.1597 18.7903 27.1586 18.4894C27.1586 18.1711 27.1413 17.8685 27.1115 17.5893C27.0992 17.4614 26.9306 17.3779 26.7447 17.4014C26.5588 17.4249 26.4522 17.5136 26.4497 17.618C26.4497 17.8789 26.4225 18.1555 26.3927 18.4555C26.3544 18.8127 26.3544 19.1733 26.3927 19.5305C26.4877 20.382 26.7947 21.1921 27.2826 21.8787C27.5541 22.2677 27.8762 22.6146 28.2393 22.9093C28.3286 22.9824 28.4327 23.0685 28.512 23.1259C28.5786 23.1746 28.6416 23.2287 28.7004 23.2876C28.7328 23.3183 28.759 23.3556 28.7772 23.3972C28.7957 23.4438 28.8074 23.4931 28.8119 23.5433C28.8218 23.6459 28.7982 23.749 28.745 23.8356C28.733 23.8563 28.7188 23.8755 28.7029 23.893C28.6829 23.9155 28.6614 23.9365 28.6384 23.9556C28.5703 24.0156 28.4982 24.0705 28.4228 24.12C28.0789 24.33 27.699 24.4666 27.3049 24.5218C27.1661 24.5458 27.0392 24.6188 26.945 24.7288C26.8509 24.8388 26.7951 24.9793 26.7868 25.1271V25.1454L26.6926 26.9196L26.5043 26.9483C26.2762 26.9718 26.0432 26.9848 25.8127 26.99C25.5822 26.9952 25.3467 26.99 25.1162 26.9692C24.9997 26.9692 24.8832 26.9509 24.7692 26.9326L24.5709 26.9091C24.3957 26.8905 24.2188 26.9114 24.0519 26.9705C23.885 27.0295 23.7319 27.1252 23.6029 27.2514C23.4739 27.3775 23.372 27.5312 23.3038 27.7021C23.2356 27.8729 23.2028 28.0571 23.2076 28.2424C23.2085 28.3151 23.2151 28.3875 23.2274 28.459C23.2274 28.5216 23.2473 28.5503 23.2572 28.5973C23.2671 28.6442 23.3018 28.7669 23.3266 28.8582C23.3811 29.0232 23.4491 29.183 23.5298 29.3356C23.8547 29.9309 24.3416 30.4099 24.9278 30.7107C25.1739 30.8461 25.4311 30.9579 25.6962 31.0446L25.6813 31.089C25.5798 31.383 25.5075 31.6873 25.4657 31.997C25.4385 32.1816 25.431 32.3689 25.4434 32.5553V32.5997C25.4285 32.524 25.4632 32.7171 25.4607 32.6962V32.7275L25.4731 32.7902C25.4811 32.8315 25.4861 32.8733 25.488 32.9154C25.4982 33.002 25.4982 33.0897 25.488 33.1763C25.4587 33.4263 25.3568 33.6608 25.1962 33.8475C25.0356 34.0343 24.8242 34.1644 24.5907 34.22L24.4742 34.2408L24.3081 34.2591L23.971 34.2852C23.748 34.3009 23.5224 34.3061 23.3018 34.3087C22.8665 34.311 22.4313 34.29 21.998 34.2461C21.1981 34.1742 20.4088 34.0053 19.6457 33.7425C18.2354 33.2389 17.1373 32.4092 16.5969 31.6134C16.5375 31.5247 16.3491 31.5299 16.1855 31.6291C16.0219 31.7282 15.9599 31.8743 16.0145 31.9839C16.3335 32.5751 16.7616 33.0932 17.2736 33.5077ZM25.8871 31.0968H25.9019H25.8871Z" fill="#14131C"/>
<path d="M30.8346 28.4746C30.7183 28.5115 30.6074 28.565 30.5049 28.6338C30.4093 28.683 30.3188 28.7425 30.2347 28.8112C30.205 29.0147 30.2124 29.2574 30.1976 29.5157C30.179 30.06 30.0497 30.5939 29.8183 31.0811C29.7142 31.316 29.5952 31.5273 29.5283 31.723C29.5766 31.8384 29.6355 31.9485 29.7043 32.0517C29.7531 32.1476 29.8149 32.2355 29.8877 32.3127C30.2092 32.2672 30.5078 32.1124 30.7379 31.8717C31.0619 31.5496 31.2933 31.138 31.4055 30.6839C31.5177 30.2299 31.5062 29.7518 31.3725 29.3043C31.2846 28.9731 31.0956 28.6815 30.8346 28.4746V28.4746Z" fill="#14131C"/>
<path d="M32.5473 32.9806C32.2647 33.5024 31.9623 33.9303 31.7715 34.2538C31.8116 34.3725 31.8749 34.4809 31.9574 34.5721C32.064 34.7078 32.1606 34.8044 32.1829 34.7939C32.6971 34.541 33.1498 34.168 33.5066 33.7033C34.0062 33.0727 34.3667 32.3332 34.5622 31.5383C34.7576 30.7433 34.7831 29.9126 34.6368 29.106C34.5393 28.5163 34.3155 27.9578 33.9825 27.4727C33.8589 27.4753 33.738 27.5102 33.6305 27.5744C33.5276 27.6082 33.4328 27.6652 33.3529 27.7414C33.3702 28.1197 33.4446 28.6442 33.4496 29.2469C33.4595 29.8981 33.3895 30.5479 33.2413 31.1803C33.0845 31.8093 32.8512 32.4143 32.5473 32.9806V32.9806Z" fill="#14131C"/>
<path d="M36.4786 26.7029C36.6021 27.4654 36.6848 28.2345 36.7265 29.0068C36.7578 30.0275 36.6544 31.0478 36.4192 32.0386C36.1695 33.0265 35.7908 33.973 35.2938 34.8513C34.9062 35.5085 34.4841 36.1427 34.0297 36.7507C34.0074 36.782 34.0917 36.9334 34.2156 37.0821C34.3395 37.2308 34.4313 37.3013 34.4635 37.2804C35.1656 36.8333 35.7798 36.2488 36.2729 35.5583C36.9582 34.619 37.4561 33.5436 37.7368 32.3967C38.0175 31.2498 38.0751 30.0551 37.9064 28.8841C37.7932 28.0281 37.5257 27.2027 37.1182 26.4524C37.0983 26.4159 36.9347 26.4524 36.7563 26.5203C36.5778 26.5881 36.4737 26.6664 36.4786 26.7029Z" fill="#14131C"/>
</g>
<defs>
<clipPath id="clip0">
<rect width="24.7869" height="24.7869" fill="white" transform="translate(14.6064 14.6069)"/>
</clipPath>
</defs>
</svg>
