<svg width="54" height="54" viewBox="0 0 54 54" fill="none" xmlns="http://www.w3.org/2000/svg">
<circle cx="27" cy="27" r="27" fill="#F8F8F8"/>
<path d="M27.0001 12.3936C24.1112 12.3936 21.2872 13.2502 18.8851 14.8552C16.4831 16.4602 14.611 18.7414 13.5054 21.4104C12.3999 24.0794 12.1106 27.0163 12.6742 29.8497C13.2378 32.6831 14.629 35.2857 16.6717 37.3285C18.7145 39.3713 21.3171 40.7624 24.1505 41.326C26.9839 41.8896 29.9208 41.6003 32.5898 40.4948C35.2588 39.3893 37.54 37.5171 39.145 35.1151C40.75 32.713 41.6067 29.889 41.6067 27.0001C41.6067 23.1262 40.0678 19.411 37.3285 16.6717C34.5893 13.9325 30.874 12.3936 27.0001 12.3936ZM27.0001 13.3065C29.4979 13.3075 31.9479 13.9917 34.0848 15.285C36.2217 16.5784 37.9642 18.4315 39.1236 20.644C38.7379 20.6234 38.3499 20.6097 37.955 20.6097C33.92 20.6097 30.3482 21.6733 28.1413 23.3074C29.6151 23.7937 30.9846 24.5524 32.1786 25.544C32.2301 25.5812 32.2732 25.6287 32.3053 25.6835C32.3373 25.7383 32.3576 25.7992 32.3648 25.8623C32.372 25.9253 32.3659 25.9892 32.347 26.0498C32.3282 26.1104 32.2968 26.1664 32.2551 26.2143C32.2133 26.2621 32.162 26.3007 32.1045 26.3275C32.047 26.3544 31.9845 26.369 31.921 26.3704C31.8576 26.3717 31.7945 26.3598 31.7359 26.3354C31.6773 26.311 31.6244 26.2747 31.5806 26.2287C30.3231 25.1332 28.5566 24.2865 26.5049 23.7547H26.4843C26.2713 23.6999 26.0553 23.6482 25.8362 23.5995L25.7814 23.5767C25.5714 23.5311 25.3592 23.4892 25.1446 23.4512L25.0716 23.4375C24.4097 23.3188 23.7251 23.2344 23.0175 23.1796C22.8258 23.1659 22.6341 23.1545 22.4401 23.1431L22.1617 23.1294C21.8787 23.1202 21.5888 23.1202 21.2944 23.1202C18.3275 23.1202 15.6161 23.6954 13.5119 24.6494C14.0691 21.4752 15.7263 18.5987 18.1928 16.5245C20.6593 14.4503 23.7774 13.311 27.0001 13.3065ZM20.3062 38.9387C23.0951 36.1292 19.0395 32.3041 19.0395 32.3041C23.2754 34.1299 23.2754 37.4484 23.2754 37.4484C24.7886 35.0269 21.7623 28.3695 21.7623 28.3695C24.7886 32.0006 25.0921 37.7496 25.0921 37.7496C27.2101 35.3281 25.0921 30.7887 25.0921 30.7887C29.0154 33.2033 27.3356 38.7173 27.3265 38.747C28.5749 36.9873 29.7023 33.8812 28.7255 28.6707C28.7255 28.6707 30.8435 31.0922 29.3303 38.0509C29.3303 38.0509 33.8698 34.1162 33.265 29.5768C33.265 29.5768 33.993 33.4681 32.8359 36.6724C33.5343 35.351 35.0246 33.3038 37.5009 33.5092C37.5009 33.5092 33.3563 35.2871 33.8492 38.8428C31.7948 40.0359 29.4644 40.6719 27.0887 40.6879C24.713 40.7039 22.3743 40.0994 20.3039 38.9341L20.3062 38.9387Z" fill="#14131C"/>
<path d="M22.1548 20.1009C22.2806 20.3282 22.4544 20.5253 22.6641 20.6786C22.8738 20.8319 23.1143 20.9378 23.369 20.9887L23.2457 22.2919C23.7844 22.3376 24.3169 22.4022 24.8433 22.4859L24.7041 21.0663C24.9008 21.1136 25.1056 21.116 25.3033 21.0734C25.501 21.0308 25.6866 20.9443 25.8464 20.8202C26.0062 20.6962 26.136 20.5378 26.2263 20.3568C26.3165 20.1758 26.3649 19.9768 26.3679 19.7746C26.6449 19.6315 26.8802 19.4191 27.0507 19.158C27.2213 18.897 27.3213 18.5962 27.3411 18.2851C27.3608 17.9739 27.2997 17.6629 27.1635 17.3824C27.0274 17.1018 26.8209 16.8614 26.5642 16.6844C26.4963 16.2756 26.3134 15.8946 26.037 15.586C25.7605 15.2773 25.4019 15.0538 25.003 14.9415C24.6042 14.8292 24.1816 14.8328 23.7847 14.9519C23.3878 15.071 23.033 15.3007 22.7619 15.614C22.5779 15.6238 22.3978 15.671 22.2327 15.7527C22.0676 15.8344 21.9208 15.9489 21.8014 16.0892C21.682 16.2296 21.5925 16.3928 21.5383 16.5689C21.4841 16.745 21.4663 16.9303 21.4861 17.1134C21.2694 17.3288 21.1108 17.5955 21.0253 17.8888C20.9398 18.1821 20.9301 18.4923 20.9971 18.7904C21.0642 19.0884 21.2058 19.3646 21.4086 19.593C21.6115 19.8214 21.869 19.9946 22.1571 20.0964L22.1548 20.1009Z" fill="#14131C"/>
<path d="M32.8335 36.6768C32.6475 37.0228 32.4874 37.3821 32.3542 37.7517C32.5411 37.4061 32.7013 37.0467 32.8335 36.6768V36.6768Z" fill="#14131C"/>
</svg>
