<svg width="74" height="74" viewBox="0 0 74 74" fill="none" xmlns="http://www.w3.org/2000/svg">
<g opacity="0.5">
<rect x="2.5" y="2.5" width="69" height="69" rx="13.5" stroke="#F8F8F8" stroke-width="5"/>
<line x1="23.2324" y1="11.0466" x2="52.4882" y2="11.0466" stroke="#F8F8F8" stroke-width="2"/>
<path d="M41.7151 49.331C40.8751 49.691 39.9871 49.967 39.0511 50.159C38.1151 50.375 37.1431 50.483 36.1351 50.483C34.2151 50.483 32.4271 50.135 30.7711 49.439C29.1391 48.743 27.7231 47.795 26.5231 46.595C25.3231 45.371 24.3751 43.943 23.6791 42.311C23.0071 40.655 22.6711 38.891 22.6711 37.019C22.6711 35.147 23.0071 33.395 23.6791 31.763C24.3751 30.107 25.3231 28.679 26.5231 27.479C27.7231 26.255 29.1391 25.295 30.7711 24.599C32.4271 23.903 34.2151 23.555 36.1351 23.555C38.0551 23.555 39.8311 23.903 41.4631 24.599C43.1191 25.295 44.5471 26.255 45.7471 27.479C46.9471 28.679 47.8831 30.107 48.5551 31.763C49.2511 33.395 49.5991 35.147 49.5991 37.019C49.5991 39.011 49.2271 40.859 48.4831 42.563C47.7391 44.267 46.6951 45.731 45.3511 46.955L47.3311 49.907L43.7311 52.319L41.7151 49.331ZM36.2431 41.123L39.8431 38.675L42.6511 42.923C43.2991 42.179 43.8031 41.315 44.1631 40.331C44.5471 39.323 44.7391 38.219 44.7391 37.019C44.7391 35.699 44.5111 34.499 44.0551 33.419C43.6231 32.315 43.0111 31.379 42.2191 30.611C41.4511 29.843 40.5391 29.243 39.4831 28.811C38.4511 28.379 37.3351 28.163 36.1351 28.163C34.9351 28.163 33.8071 28.379 32.7511 28.811C31.7191 29.243 30.8071 29.843 30.0151 30.611C29.2471 31.379 28.6351 32.315 28.1791 33.419C27.7471 34.499 27.5311 35.699 27.5311 37.019C27.5311 38.339 27.7471 39.551 28.1791 40.655C28.6351 41.735 29.2471 42.659 30.0151 43.427C30.8071 44.195 31.7191 44.795 32.7511 45.227C33.8071 45.659 34.9351 45.875 36.1351 45.875C36.6631 45.875 37.1671 45.827 37.6471 45.731C38.1271 45.635 38.5951 45.503 39.0511 45.335L36.2431 41.123Z" fill="#F8F8F8"/>
</g>
</svg>
