<svg width="54" height="54" viewBox="0 0 54 54" fill="none" xmlns="http://www.w3.org/2000/svg">
<circle cx="27" cy="27" r="27" fill="#F8F8F8"/>
<g clip-path="url(#clip0)">
<path d="M37.3283 14.8332C37.14 14.6667 36.8905 14.5868 36.6404 14.6127L20.706 16.3832C20.2575 16.4328 19.9181 16.8119 19.9182 17.2631V33.0391C19.1159 32.559 18.1974 32.3076 17.2624 32.3123C14.8218 32.3124 12.8362 33.9005 12.8362 35.8533C12.8362 37.8062 14.8218 39.3943 17.2624 39.3943C19.703 39.3943 21.6886 37.807 21.6886 35.8533V22.4861L35.8525 20.9086V31.266C35.05 30.7868 34.1316 30.5364 33.1968 30.5418C30.7562 30.5418 28.7706 32.13 28.7706 34.0828C28.7706 36.0357 30.7562 37.6238 33.1968 37.6238C35.6374 37.6238 37.623 36.0366 37.623 34.0828V15.4927C37.623 15.2409 37.5159 15.0011 37.3283 14.8332Z" fill="#14131C"/>
</g>
<defs>
<clipPath id="clip0">
<rect width="24.7869" height="24.7869" fill="white" transform="translate(12.8362 14.6069)"/>
</clipPath>
</defs>
</svg>
