<svg width="104" height="104" viewBox="0 0 104 104" fill="none" xmlns="http://www.w3.org/2000/svg">
<circle cx="52" cy="52" r="52" fill="#F8F8F8"/>
<g clip-path="url(#clip0)">
<path d="M71.8917 28.5661C71.5289 28.2456 71.0484 28.0916 70.5669 28.1416L39.8784 31.5514C39.0146 31.647 38.361 32.377 38.3611 33.246V63.6295C36.8159 62.7048 35.0471 62.2207 33.2463 62.2297C28.5459 62.2298 24.7217 65.2883 24.7217 69.0494C24.7217 72.8104 28.5459 75.8691 33.2462 75.8691C37.9466 75.8691 41.7708 72.8121 41.7708 69.0494V43.3052L69.0495 40.267V60.2146C67.5038 59.2917 65.735 58.8094 63.9347 58.8199C59.2343 58.8199 55.4102 61.8785 55.4102 65.6396C55.4102 69.4006 59.2344 72.4593 63.9347 72.4593C68.6351 72.4593 72.4593 69.4023 72.4593 65.6396V29.8363C72.4593 29.3514 72.2529 28.8895 71.8917 28.5661Z" fill="#14131C"/>
</g>
<defs>
<clipPath id="clip0">
<rect width="47.7377" height="47.7377" fill="white" transform="translate(24.7217 28.1313)"/>
</clipPath>
</defs>
</svg>
