<svg width="22" height="22" viewBox="0 0 22 22" fill="none" xmlns="http://www.w3.org/2000/svg">
<path d="M11.4701 11.8801L21.3401 2.00007C21.5039 1.80876 21.5895 1.56269 21.5798 1.31101C21.57 1.05934 21.4657 0.820598 21.2876 0.642503C21.1095 0.464409 20.8708 0.360076 20.6191 0.350355C20.3674 0.340634 20.1214 0.42624 19.9301 0.590066L10.8701 9.65007L2.07006 0.850066C1.88269 0.663815 1.62924 0.559274 1.36506 0.559274C1.10087 0.559274 0.847419 0.663815 0.660056 0.850066C0.566328 0.943029 0.491934 1.05363 0.441165 1.17549C0.390396 1.29735 0.364258 1.42805 0.364258 1.56007C0.364258 1.69208 0.390396 1.82278 0.441165 1.94464C0.491934 2.0665 0.566328 2.1771 0.660056 2.27007L10.2701 11.8801C10.4294 12.0388 10.6451 12.128 10.8701 12.128C11.095 12.128 11.3107 12.0388 11.4701 11.8801Z" fill="#F8F8F8"/>
<path d="M11.4701 21.4601L21.3401 11.5801C21.5039 11.3888 21.5895 11.1428 21.5798 10.8911C21.57 10.6394 21.4657 10.4007 21.2876 10.2226C21.1095 10.0445 20.8708 9.94015 20.6191 9.93043C20.3674 9.92071 20.1214 10.0063 19.9301 10.1701L10.8701 19.2301L2.07006 10.4301C1.88269 10.2439 1.62924 10.1394 1.36506 10.1394C1.10087 10.1394 0.847418 10.2439 0.660055 10.4301C0.473804 10.6175 0.369263 10.871 0.369263 11.1351C0.369263 11.3993 0.473804 11.6528 0.660055 11.8401L10.2701 21.4601C10.4294 21.6189 10.6451 21.7081 10.8701 21.7081C11.095 21.7081 11.3107 21.6189 11.4701 21.4601Z" fill="#F8F8F8"/>
</svg>
